<svg xmlns="http://www.w3.org/2000/svg" width="302" height="89" fill="none" viewBox="0 0 302 89">
  <g filter="url(#a)">
    <rect width="268" height="61" x="16" y="12" fill="#fff" rx="16"/>
    <path fill="#000" d="m41.64 31.465 1.554.336c-.819 3.36-2.142 6.594-3.759 8.736a10.19 10.19 0 0 0-1.26-1.008c1.554-1.953 2.772-4.977 3.465-8.064Zm-.357 8.904 1.533.315c-.651 2.751-1.785 5.418-3.066 7.182a10.007 10.007 0 0 0-1.365-.861c1.302-1.617 2.31-4.116 2.898-6.636Zm.168-4.956h9.45v1.47H40.842l.609-1.47Zm3.255.609h1.575v12.747c0 .903-.189 1.365-.777 1.617-.567.273-1.47.315-2.772.315a8.575 8.575 0 0 0-.567-1.596c.987.042 1.89.021 2.184.021.273 0 .357-.084.357-.357V36.022Zm3.087 4.662 1.407-.462c1.218 2.205 2.268 5.103 2.625 7.056l-1.491.504c-.336-1.932-1.386-4.893-2.541-7.098Zm2.646-5.271h.21l.273-.042 1.092.231c-.294 1.554-.651 3.36-.924 4.494l-1.365-.252c.231-1.05.504-2.814.714-4.2v-.231Zm-13.02-3.969 1.491.462c-1.386 3.57-3.549 7.119-5.817 9.471-.168-.357-.609-1.197-.903-1.554 2.079-2.037 4.053-5.187 5.229-8.379Zm-2.184 5.418 1.47-1.491.042.021v15.267h-1.512V36.862Zm19.11 5.985h19.11v1.323h-19.11v-1.323Zm.504-10.563H72.93v1.386H54.849v-1.386Zm6.783 8.358 1.533.42c-1.365 2.184-3.297 4.935-4.641 6.657l-1.491-.504c1.344-1.701 3.297-4.515 4.599-6.573Zm6.3 2.667 1.512.441c-1.848 4.62-6.321 6.342-14.196 6.93a4.352 4.352 0 0 0-.609-1.386c7.497-.399 11.613-1.89 13.293-5.985Zm-9.765 3.696.798-1.155c5.187.924 10.584 2.331 13.839 3.612l-.945 1.281c-3.213-1.323-8.358-2.751-13.692-3.738Zm2.415-14.196h1.491v7.329h-1.491v-7.329Zm4.893 0h1.491v7.329h-1.491v-7.329Zm-8.106 3.948v2.856h13.104v-2.856H57.369Zm-1.47-1.281h16.149v5.439H55.899v-5.439Zm25.41 8.988h1.554v3.843c0 .567.189.672 1.344.672h3.843c.924 0 1.092-.273 1.176-2.289.336.273.987.483 1.428.588-.21 2.52-.693 3.129-2.478 3.129h-4.095c-2.226 0-2.772-.441-2.772-2.079v-3.864Zm1.722-.819 1.071-.924c1.386.672 3.003 1.785 3.759 2.667l-1.134 1.029c-.735-.882-2.331-2.058-3.696-2.772Zm6.846 1.071 1.344-.672c1.575 1.386 3.192 3.36 3.801 4.851l-1.449.735c-.567-1.428-2.121-3.465-3.696-4.914Zm-11.319-.357 1.407.462c-.567 1.89-1.407 3.885-2.982 5.103l-1.302-.861c1.47-1.092 2.415-2.94 2.877-4.704Zm1.722-10.584h14.091v1.407H80.28v-1.407Zm4.263 3.192H93.3v1.302h-8.757v-1.302Zm.021 3.192h9.24v1.344h-9.24v-1.344Zm-.714-5.922h1.575v8.946H83.85v-8.946Zm-2.919-2.919 1.638.399c-1.176 3.297-3.129 6.216-5.334 8.127-.273-.315-.945-.903-1.344-1.155 2.205-1.701 4.032-4.41 5.04-7.371Zm20.034 17.535c3.36-.042 8.715-.147 13.797-.294l-.063 1.218c-4.956.168-10.185.357-13.629.42l-.105-1.344Zm9.954-5.502 1.344.756c-2.121 1.932-5.061 4.221-7.329 5.607l-1.008-.693c2.268-1.428 5.229-3.864 6.993-5.67Zm-3.969-1.344 1.281.714c-1.071 1.071-2.373 2.268-3.423 3.024l-.987-.609c1.029-.819 2.373-2.163 3.129-3.129Zm-4.746 2.898 1.029-.924c1.47.819 3.381 2.058 4.347 2.919l-1.092 1.029c-.903-.84-2.793-2.163-4.284-3.024Zm8.673 1.68 1.239-.63c1.533 1.176 3.381 2.898 4.284 4.095l-1.323.693c-.861-1.155-2.646-2.919-4.2-4.158Zm-9.597-10.374h6.552v1.176h-6.552v-1.176Zm7.287 0h7.35v1.176h-7.35v-1.176Zm-4.578-1.512h1.218v7.686h-1.218v-7.686Zm2.373 3.381h.987v3.255h-.987V38.08Zm4.872-3.381h1.239v7.749h-1.239v-7.749Zm-9.324 3.381h.987v.84c0 1.218-.147 2.604-1.155 3.675-.168-.231-.588-.525-.861-.672.903-.819 1.029-2.1 1.029-3.045v-.798Zm7.224-.042h.987v.819c0 1.113-.147 2.436-1.092 3.423-.189-.231-.609-.546-.882-.693.861-.735.987-1.932.987-2.793v-.756Zm4.494 0h1.05v2.856c0 .273 0 .441.042.504.042.042.126.063.231.063h.399c.105 0 .252 0 .294-.042.063-.042.105-.147.147-.315.042-.168.063-.588.084-1.092.21.147.546.315.798.378-.021.546-.063 1.176-.168 1.386a.824.824 0 0 1-.441.441c-.147.084-.42.105-.609.105h-.714c-.315 0-.651-.063-.84-.252-.21-.21-.273-.483-.273-1.323v-2.709Zm-6.888-6.657h1.617v2.457h-1.617v-2.457Zm-7.119 1.764h16.758v1.365H99.621v-1.365Zm-.882 0h1.47v6.489c0 3.213-.252 7.938-1.869 11.109-.252-.273-.882-.735-1.218-.903 1.491-2.982 1.617-7.182 1.617-10.206v-6.489Zm20.874 6.489h17.871v4.053h-1.554v-2.73h-14.847v2.73h-1.47v-4.053Zm6.09-7.917h1.407v5.607h2.709v-5.607h1.47v6.825h-5.586v-6.825Zm-6.51 2.184h18.585v1.281h-18.585v-1.281Zm13.923-2.247h1.428v5.397c0 .462.063.525.441.525h1.197c.378 0 .462-.231.504-1.806.294.21.84.42 1.239.504-.126 1.995-.504 2.541-1.554 2.541h-1.596c-1.344 0-1.659-.378-1.659-1.764v-5.397Zm-10.584 0h1.449v2.73c0 1.701-.567 3.738-3.759 4.977a5.094 5.094 0 0 0-.882-1.029c2.856-.945 3.192-2.646 3.192-3.948v-2.73Zm5.082 9.072h1.554v9.933h-1.554v-9.933Zm-5.922 2.373h12.81v1.302h-11.277v5.061h-1.533v-6.363Zm12.222 0h1.533v4.704c0 .756-.147 1.197-.777 1.428-.651.231-1.659.231-3.255.231-.063-.42-.294-.987-.504-1.386 1.197.042 2.31.042 2.604.021.315 0 .399-.084.399-.315v-4.683Zm20.349-10.353 1.197-.819c1.239 1.05 2.709 2.541 3.402 3.507l-1.302.924c-.63-1.008-2.058-2.52-3.297-3.612Zm-13.608 4.83h18.711v1.512h-18.711v-1.512Zm-.315 6.174c2.499-.462 6.447-1.302 10.143-2.1l.126 1.428c-3.444.798-7.161 1.659-9.807 2.247l-.462-1.575Zm4.83-10.248h1.575v15.162c0 1.029-.252 1.491-.924 1.743s-1.785.315-3.528.294c-.084-.42-.357-1.134-.588-1.596a35.63 35.63 0 0 0 2.961.021c.378 0 .504-.105.504-.483V33.502Zm3.99-1.89 1.113 1.323c-2.436.84-6.006 1.491-9.009 1.911-.084-.357-.273-.945-.483-1.302 2.961-.462 6.363-1.176 8.379-1.932Zm2.1-.063h1.638c-.042 9.639 2.016 17.619 4.578 17.619.567 0 .819-1.092.945-3.801.336.357.903.714 1.344.882-.294 3.486-.861 4.515-2.436 4.515-4.116 0-5.985-9.219-6.069-19.215Zm5.691 8.505 1.407.588c-2.058 3.843-5.523 7.224-9.387 9.261-.252-.399-.693-.903-1.092-1.26 3.738-1.806 7.203-5.04 9.072-8.589Zm6.804-5.523h15.687v1.596h-15.687v-1.596Zm-1.638 5.544h18.879v1.575h-18.879v-1.575Zm8.505-8.715h1.659v9.597h-1.659V31.36Zm-1.701 9.744 1.848.483c-1.092 2.478-2.541 5.481-3.759 7.434l-1.47-.504c1.176-1.995 2.625-5.166 3.381-7.413Zm-6.048 7.035c3.948-.105 10.164-.378 15.918-.651l-.063 1.533c-5.649.315-11.676.63-15.645.798l-.21-1.68Zm11.571-4.095 1.449-.672c1.89 2.058 3.927 4.809 4.893 6.657l-1.554.84c-.903-1.869-2.961-4.746-4.788-6.825Zm13.671-12.684h1.344v3.465h-1.344V31.36Zm.546.924h4.389v1.05h-4.389v-1.05Zm-1.68 2.079h4.809v1.05h-5.67l.861-1.05Zm4.431 0h.273l.252-.042.84.462c-1.575 3.15-5.187 5.019-8.673 5.922a5.38 5.38 0 0 0-.735-1.071c3.234-.714 6.741-2.457 8.043-5.04v-.231Zm-6.174 2.058.819-.714c1.071.462 2.415 1.197 3.108 1.785l-.84.777c-.651-.546-1.995-1.344-3.087-1.848Zm1.281-2.373 1.197.357c-.882 1.176-2.331 2.31-3.654 3.024-.21-.21-.693-.63-.987-.819 1.344-.63 2.688-1.554 3.444-2.562Zm7.392-1.764h6.531v1.155h-6.531v-1.155Zm6.153 0h.294l.231-.063.903.399c-1.197 3.192-4.011 5.271-6.888 6.279-.168-.336-.525-.861-.798-1.134 2.646-.798 5.271-2.709 6.258-5.271v-.21Zm-6.216 2.814.903-.882c2.604 1.176 5.817 3.087 7.434 4.494l-.966 1.029c-1.554-1.428-4.746-3.402-7.371-4.641Zm-.903 3.738c-1.89 1.68-5.397 3.423-8.883 4.452a5.167 5.167 0 0 0-.693-1.113c3.549-.945 7.056-2.646 8.862-4.389h1.281c2.394 1.953 6.069 3.465 9.282 4.137-.294.336-.609.861-.777 1.197-3.087-.777-6.867-2.457-9.072-4.284Zm-4.725 3.339h10.647v4.83H188.22v-.966h9.156v-2.898h-9.156v-.966Zm-.819 0h1.491v7.329l-1.491.126v-7.455Zm12.264 3.885 1.155.735c-1.323.84-3.003 1.722-4.326 2.268l-.861-.63c1.302-.588 3.045-1.617 4.032-2.373Zm-6.447.357c1.554 1.89 5.103 2.835 9.219 3.108-.294.273-.63.798-.798 1.176-4.263-.399-7.833-1.596-9.597-3.927l1.176-.357Zm-4.998-2.31h9.66v.882h-9.66v-.882Zm2.058-3.633h5.481v.966h-5.481v-.966Zm-5.25 8.715c2.226-.189 5.67-.504 9.009-.861v1.197c-3.15.336-6.489.693-8.82.924l-.189-1.26Zm23.352-13.776h6.846v1.092h-6.846v-1.092Zm1.47 2.268h3.843v.903h-3.843v-.903Zm0 2.142h3.843v.924h-3.843v-.924Zm-1.617 4.536h4.116v1.008h-4.116v-1.008Zm.063 2.163h3.99v1.008h-3.99v-1.008Zm7.077-10.458h8.4v1.155h-8.4v-1.155Zm-.357 7.392h9.156v1.134h-9.156v-1.134Zm3.759-8.652h1.344v4.263h-1.344v-4.263Zm-9.408 1.155h1.197v6.657h-1.197v-6.657Zm.378 8.82h1.071v4.515h-1.071v-4.515Zm3.192-8.82h1.239v14.763h-1.239V35.959Zm8.232 3.444v2.037h1.386v-2.037h-1.386Zm-2.331 0v2.037h1.365v-2.037h-1.365Zm-2.226 0v2.037h1.281v-2.037h-1.281Zm-1.071-1.008h8.085v4.053h-8.085v-4.053Zm-7.476 3.885c1.512-.063 3.591-.21 5.754-.357l-.021 1.071c-2.016.189-4.011.357-5.607.462l-.126-1.176Zm-.315 6.804c1.239-.105 2.877-.294 4.641-.483l.021 1.008c-1.617.21-3.171.42-4.515.567l-.147-1.092Zm9.744-2.919h1.197v2.919c0 .357.063.399.462.399h1.323c.378 0 .441-.126.483-1.407.252.189.714.357 1.071.441-.126 1.659-.462 2.058-1.386 2.058h-1.638c-1.218 0-1.512-.273-1.512-1.491v-2.919Zm-1.869.126 1.05.315c-.126 1.197-.399 2.562-.987 3.381l-1.029-.525c.525-.756.84-2.037.966-3.171Zm5.943.231 1.092-.399c.777 1.05 1.491 2.436 1.701 3.402l-1.134.441c-.189-.945-.882-2.373-1.659-3.444Zm-3.717-1.428.756-.756c.945.441 2.037 1.134 2.583 1.68l-.819.84c-.504-.546-1.596-1.302-2.52-1.764Zm-3.486-13.713h1.617v2.352h-1.617v-2.352Zm-7.056 1.533h16.674v1.281h-16.674v-1.281Zm-1.029 0h1.428v6.615c0 3.255-.231 8.022-1.743 11.214-.252-.273-.882-.714-1.218-.861 1.428-3.024 1.533-7.287 1.533-10.332v-6.636Zm27.951-.567h1.47v7.203c0 3.381-.336 7.98-2.919 10.962-.252-.273-.882-.672-1.239-.84 2.457-2.856 2.688-6.972 2.688-10.122v-7.203Zm3.213 6.657h1.491v9.114c0 .756.168.903 1.05.903h3.171c.819 0 .945-.462 1.05-2.961.315.273.945.525 1.365.609-.189 2.94-.609 3.759-2.31 3.759h-3.402c-1.911 0-2.415-.483-2.415-2.289v-9.135Zm6.531 1.323 1.218 1.113c-1.785 1.281-4.368 2.52-6.699 3.465a5.595 5.595 0 0 0-.546-1.134c2.205-.945 4.683-2.268 6.027-3.444Zm-8.883-7.98h9.681v5.859h-9.681v-1.428h8.19v-3.003h-8.19v-1.428Zm-7.224.945h4.557v12.222h-4.557v-1.512h3.15v-9.198h-3.15v-1.512Zm-.777 0h1.428v13.881h-1.428V33.292Zm29.358 10.647c-.63-3.507 4.305-4.431 4.305-6.825 0-1.449-1.029-2.499-3.171-2.499-1.449 0-2.772.63-3.99 1.89l-1.113-1.029c1.386-1.47 3.024-2.457 5.292-2.457 2.961 0 4.872 1.533 4.872 3.948 0 3.171-5.019 3.822-4.473 6.972h-1.722Zm.903 5.166c-.756 0-1.344-.525-1.344-1.365s.609-1.407 1.344-1.407c.735 0 1.344.567 1.344 1.407 0 .84-.609 1.365-1.344 1.365Z"/>
    <path fill="#fff" d="m277.03 31.88 19.476 9.95-19.105 11.917-.371-21.867Z"/>
  </g>
  <defs>
    <filter id="a" width="309.291" height="89" x="-4" y="0" color-interpolation-filters="sRGB" filterUnits="userSpaceOnUse">
      <feFlood flood-opacity="0" result="BackgroundImageFix"/>
      <feColorMatrix in="SourceAlpha" result="hardAlpha" values="0 0 0 0 0 0 0 0 0 0 0 0 0 0 0 0 0 0 127 0"/>
      <feOffset dy="2"/>
      <feGaussianBlur stdDeviation="2"/>
      <feComposite in2="hardAlpha" operator="out"/>
      <feColorMatrix values="0 0 0 0 0 0 0 0 0 0 0 0 0 0 0 0 0 0 0.15 0"/>
      <feBlend in2="BackgroundImageFix" result="effect1_dropShadow_616_2987"/>
      <feBlend in="SourceGraphic" in2="effect1_dropShadow_616_2987" result="shape"/>
    </filter>
  </defs>
</svg>
