<svg xmlns="http://www.w3.org/2000/svg" xmlns:xlink="http://www.w3.org/1999/xlink" width="377" height="87" fill="none" viewBox="0 0 377 87">
  <g filter="url(#a)">
    <rect width="268" height="61" x="16" y="10" fill="#fff" rx="16"/>
    <path fill="#000" d="M107.538 26.356h8.253v9.24h-1.512v-7.791h-5.292v7.875h-1.449v-9.324Zm3.045-9.954h1.554v10.416h-1.554V16.402Zm.903 4.557h5.145v1.47h-5.145v-1.47Zm-3.192 12.285h6.72v1.449h-6.72v-1.449Zm-8.988-14.952v5.082h5.775v-5.082h-5.775Zm-1.239-1.155h8.295v7.392h-8.295v-7.392Zm1.533 2.184.798-.21c.357 1.029.63 2.352.693 3.192l-.819.252c-.042-.882-.315-2.205-.672-3.234Zm.714 12.033 1.029-.147c.336 1.155.546 2.667.567 3.654l-1.092.147c0-.987-.21-2.499-.504-3.654Zm2.016-.126 1.008-.21c.483 1.05.945 2.457 1.092 3.381l-1.071.231c-.126-.924-.567-2.331-1.029-3.402Zm1.995-.294.987-.378c.756.966 1.512 2.268 1.827 3.129l-1.05.483c-.315-.903-1.05-2.247-1.764-3.234Zm-5.796.336 1.113.294c-.21 1.554-.546 3.192-1.449 4.137l-1.071-.588c.819-.861 1.218-2.394 1.407-3.843Zm5.376-12.222.924.357c-.378 1.071-.798 2.436-1.155 3.276l-.693-.273c.315-.903.735-2.394.924-3.36Zm-6.447 9.996c2.331-.105 5.901-.273 9.387-.483l-.042 1.26c-3.36.252-6.846.462-9.261.609l-.084-1.386Zm.462-3.087h8.589v1.281H97.92v-1.281Zm3.675-8.274h1.071v6.3h.168v5.418h-1.407v-5.418h.168v-6.3Zm21.399 6.972v7.434h-1.491v-5.964h-2.583v-1.47h4.074Zm0 6.804c.987 1.575 2.856 2.289 5.355 2.394 2.373.105 7.308.042 9.891-.126-.189.336-.441 1.05-.504 1.491-2.394.105-6.972.147-9.366.063-2.793-.105-4.704-.861-6.027-2.52a123.02 123.02 0 0 1-2.856 2.751l-.819-1.491a38.373 38.373 0 0 0 2.982-2.562h1.344Zm-3.969-13.797 1.218-.798c1.239 1.008 2.646 2.457 3.234 3.507l-1.323.903c-.546-1.05-1.911-2.562-3.129-3.612Zm5.523 7.581h12.747v1.218h-12.747v-1.218Zm-.672 3.234h14.07v1.239h-14.07v-1.239Zm3.78-4.746h1.512v5.355h-1.512v-5.355Zm4.956 0h1.491v5.355h-1.491v-5.355Zm-7.539-4.074h3.696v-1.365h-4.494V17.2h5.88v3.57h-5.082v-1.113Zm-.441 0h1.344v2.184c0 .399.105.483.777.483h2.289c.504 0 .609-.126.672-1.05.252.21.777.378 1.155.441-.147 1.365-.546 1.722-1.617 1.722h-2.646c-1.554 0-1.974-.315-1.974-1.575v-2.205Zm7.371 0h3.633v-1.365h-4.473V17.2h5.838v3.57h-4.998v-1.113Zm-.462 0h1.344v2.184c0 .399.126.483.84.483h2.478c.525 0 .63-.126.693-1.113.273.189.798.357 1.176.441-.147 1.428-.546 1.785-1.68 1.785h-2.814c-1.596 0-2.037-.315-2.037-1.596v-2.184Zm.693 11.004 1.134-.693c1.533.735 3.255 1.764 4.263 2.541l-1.554.693c-.84-.777-2.394-1.785-3.843-2.541Zm-3.843-.735 1.386.483c-1.071 1.029-2.772 2.058-4.179 2.73-.231-.273-.819-.777-1.155-.987 1.428-.567 3.003-1.365 3.948-2.226Zm12.033-4.977h19.215v1.722h-19.215v-1.722Zm31.206-4.662h7.833v1.176h-7.833v-1.176Zm0 2.94h7.833v1.176h-7.833v-1.176Zm-2.457 2.961h12.012v1.407h-12.012v-1.407Zm1.722-9.03h9.387v1.386h-7.875v8.379h-1.512v-9.765Zm-1.743 16.737c1.827-.252 4.599-.714 7.287-1.176l.063 1.386c-2.499.483-5.082.945-7.056 1.302l-.294-1.512Zm6.405-7.035c.882 3.507 2.835 6.321 5.922 7.497-.357.315-.819.945-1.05 1.365-3.234-1.47-5.187-4.578-6.195-8.61l1.323-.252Zm4.263 1.323 1.302.756c-1.197.966-2.688 1.995-3.843 2.646l-.987-.63c1.134-.714 2.667-1.932 3.528-2.772Zm-8.883-1.512h1.512v7.266l-1.512.294v-7.56Zm-8.064-.042h5.397v1.428h-5.397v-1.428Zm4.704 0h1.575s-.021.462-.063.672c-.336 5.103-.672 7.056-1.302 7.749-.399.399-.777.567-1.407.609-.504.042-1.491.042-2.499-.021-.021-.441-.189-1.071-.42-1.47.966.105 1.89.105 2.247.105s.567-.042.735-.231c.483-.483.84-2.331 1.134-7.161v-.252Zm-4.641-4.347h1.449c-.231 2.163-.588 4.956-.903 6.657l-1.47-.168c.336-1.68.735-4.431.924-6.489Zm.21 0h4.2v-3.36h-5.061v-1.449h6.51v6.279h-5.649v-1.47Zm20.496 1.827h18.837v1.554h-18.837v-1.554Zm9.114-4.725h7.455v1.533h-7.455v-1.533Zm-.945-3.024h1.638v8.484h-1.638V16.36Zm0 8.799h1.638V35.68h-1.638V25.159Zm1.176 3.507.777-1.26c2.31.609 5.502 1.659 7.203 2.478l-.819 1.407c-1.617-.798-4.788-1.953-7.161-2.625ZM54.912 44.3h18.123v1.533H54.912V44.3Zm8.106-2.919h1.638V60.68h-1.638V41.381Zm.189 9.324 1.323.525c-2.058 3.591-5.691 6.846-9.24 8.505-.252-.399-.756-1.029-1.113-1.344 3.507-1.428 7.14-4.494 9.03-7.686Zm1.365.042c1.848 3.213 5.439 6.237 9.072 7.623-.399.336-.903.966-1.176 1.407-3.612-1.617-7.182-4.893-9.219-8.484l1.323-.546Zm-6.867-1.134 1.05-.966c.987.84 2.289 2.037 2.94 2.793l-1.071 1.071c-.651-.756-1.911-2.016-2.919-2.898Zm.882-3.276 1.533.273c-.735 3.066-2.205 5.565-4.158 7.182-.252-.273-.861-.777-1.239-1.029 1.911-1.428 3.234-3.717 3.864-6.426Zm9.219 3.318 1.05-.924c1.407 1.071 3.339 2.646 4.284 3.612l-1.113 1.092c-.903-1.008-2.793-2.625-4.221-3.78Zm.735-3.318 1.512.252c-.546 2.646-1.68 4.851-3.171 6.321a8.739 8.739 0 0 0-1.344-.882c1.533-1.281 2.541-3.339 3.003-5.691Zm6.972 6.195c1.806-.462 4.494-1.26 7.098-2.016l.189 1.428c-2.394.756-4.914 1.554-6.867 2.121l-.42-1.533Zm.273-6.93h6.804v1.47h-6.804v-1.47Zm2.919-4.221h1.533v17.493c0 .861-.21 1.302-.756 1.533-.546.252-1.386.294-2.793.273-.042-.378-.273-1.008-.462-1.428.945.021 1.827.021 2.079.021.294 0 .399-.105.399-.399V41.381Zm4.62 4.83h11.361v14.28h-1.575V47.702h-8.295v12.915h-1.491V46.211Zm.903 5.607h9.345v1.491h-9.345v-1.491Zm.042 5.817h9.345v1.512H84.27v-1.512Zm3.885-16.233h1.491v17.157h-1.491V41.402Zm11.424 16.422h14.826v1.554H99.579v-1.554Zm6.447-16.338h1.617v17.22h-1.617v-17.22Zm-7.224 10.479h1.596v8.736h-1.596v-8.736Zm14.763 0h1.617v8.673h-1.617v-8.673Zm-13.944-8.589h1.554v5.712h11.529v-5.712h1.638v7.245H99.621v-7.245Zm19.278 6.573h19.215v1.722h-19.215v-1.722Zm30.261-8.568h1.617v2.793h-1.617v-2.793Zm-7.833 1.869h17.451v4.179h-1.596v-2.73H142.86v2.73h-1.533V43.25Zm2.688 3.549h11.823v1.386h-11.823v-1.386Zm2.751 3.15 1.176-.735c4.662 3.444 4.767 9.303 2.604 10.815-.714.567-1.302.714-2.247.714-.504 0-1.176-.021-1.827-.063-.042-.42-.189-1.071-.462-1.512a18.85 18.85 0 0 0 1.974.105c.567 0 1.029-.042 1.449-.399 1.491-1.071 1.407-5.817-2.667-8.925Zm3.15-2.835 1.302.567c-2.163 2.1-5.901 3.717-9.177 4.662-.168-.294-.588-.945-.861-1.239 3.213-.777 6.825-2.205 8.736-3.99Zm-1.491 4.011 1.05.714c-1.743 1.428-4.893 3.066-7.308 3.927-.189-.357-.525-.903-.84-1.218 2.373-.651 5.544-2.142 7.098-3.423Zm1.554 2.163 1.092.798c-2.184 2.205-6.279 4.515-9.639 5.628a7.385 7.385 0 0 0-.84-1.323c3.339-.882 7.413-3.066 9.387-5.103Zm1.932-5.943c1.155 4.725 3.675 8.736 7.665 10.332-.357.315-.84.924-1.092 1.365-4.137-1.89-6.615-6.153-7.875-11.424l1.302-.273Zm5.397 1.554 1.218 1.05c-1.428 1.155-3.402 2.457-4.893 3.255l-.987-.966c1.428-.84 3.465-2.268 4.662-3.339Zm15.498-.336h7.917v1.407h-7.917v-1.407Zm-4.935 9.912h10.584v1.407h-10.584v-1.407Zm4.179-12.411h1.596v7.686h-1.596v-7.686Zm-5.019 6.93h12.285v7.686h-1.617v-6.258h-9.135v6.3h-1.533v-7.728Zm4.284-11.613h1.617v3.57h-1.617v-3.57Zm-6.993 2.709h16.695v1.512h-16.695V44.09Zm-.777 0h1.575v5.439c0 3.234-.294 7.98-2.1 11.172-.273-.273-.966-.714-1.344-.882 1.722-3.024 1.869-7.266 1.869-10.29V44.09Zm28.665-2.709h1.617v2.793h-1.617v-2.793Zm-7.833 1.869h17.451v4.179h-1.596v-2.73H185.91v2.73h-1.533V43.25Zm2.688 3.549h11.823v1.386h-11.823v-1.386Zm2.751 3.15 1.176-.735c4.662 3.444 4.767 9.303 2.604 10.815-.714.567-1.302.714-2.247.714-.504 0-1.176-.021-1.827-.063-.042-.42-.189-1.071-.462-1.512a18.85 18.85 0 0 0 1.974.105c.567 0 1.029-.042 1.449-.399 1.491-1.071 1.407-5.817-2.667-8.925Zm3.15-2.835 1.302.567c-2.163 2.1-5.901 3.717-9.177 4.662-.168-.294-.588-.945-.861-1.239 3.213-.777 6.825-2.205 8.736-3.99Zm-1.491 4.011 1.05.714c-1.743 1.428-4.893 3.066-7.308 3.927-.189-.357-.525-.903-.84-1.218 2.373-.651 5.544-2.142 7.098-3.423Zm1.554 2.163 1.092.798c-2.184 2.205-6.279 4.515-9.639 5.628a7.385 7.385 0 0 0-.84-1.323c3.339-.882 7.413-3.066 9.387-5.103Zm1.932-5.943c1.155 4.725 3.675 8.736 7.665 10.332-.357.315-.84.924-1.092 1.365-4.137-1.89-6.615-6.153-7.875-11.424l1.302-.273Zm5.397 1.554 1.218 1.05c-1.428 1.155-3.402 2.457-4.893 3.255l-.987-.966c1.428-.84 3.465-2.268 4.662-3.339Zm6.258-5.523h4.683v11.739h-4.683v-1.47h3.213v-8.82h-3.213v-1.449Zm-.924 0h1.47v13.755h-1.47V43.376Zm7.455-.651h1.554v14.637c0 1.197.231 1.449 1.617 1.449h5.019c1.197 0 1.407-.588 1.575-2.982.378.273 1.008.525 1.449.609-.252 2.877-.756 3.843-2.961 3.843h-5.145c-2.352 0-3.108-.567-3.108-2.94V42.725Zm.756 0h9.618v11.046h-1.533v-9.576h-8.085v-1.47Zm-.042 8.253h8.694v1.449h-8.694v-1.449Zm3.696-7.728h1.449v8.19h-1.449v-8.19Zm17.85 10.689-.42-8.148-.063-2.499h2.331l-.063 2.499-.42 8.148h-1.365Zm.693 5.166c-.756 0-1.365-.525-1.365-1.365s.609-1.407 1.365-1.407c.735 0 1.344.567 1.344 1.407 0 .84-.609 1.365-1.344 1.365Z"/>
    <path fill="#fff" d="m277.03 29.88 19.476 9.95-19.105 11.917-.371-21.867Z"/>
  </g>
  <path fill="url(#b)" d="M311 0h65.749v74.747H311z" transform="rotate(8.362 311 0)"/>
  <defs>
    <pattern id="b" width="1" height="1" patternContentUnits="objectBoundingBox">
      <use xlink:href="#c" transform="matrix(.00177 0 0 .00156 -.001 0)"/>
    </pattern>
    <filter id="a" width="305.291" height="87" x="-2" y="0" color-interpolation-filters="sRGB" filterUnits="userSpaceOnUse">
      <feFlood flood-opacity="0" result="BackgroundImageFix"/>
      <feColorMatrix in="SourceAlpha" result="hardAlpha" values="0 0 0 0 0 0 0 0 0 0 0 0 0 0 0 0 0 0 127 0"/>
      <feOffset dy="4"/>
      <feGaussianBlur stdDeviation="1"/>
      <feComposite in2="hardAlpha" operator="out"/>
      <feColorMatrix values="0 0 0 0 0 0 0 0 0 0 0 0 0 0 0 0 0 0 0.15 0"/>
      <feBlend in2="BackgroundImageFix" result="effect1_dropShadow_745_3355"/>
      <feBlend in="SourceGraphic" in2="effect1_dropShadow_745_3355" result="shape"/>
    </filter>
  </defs>
</svg>
